<?xml version="1.0" standalone="no"?>
<!DOCTYPE svg PUBLIC "-//W3C//DTD SVG 20010904//EN"
 "http://www.w3.org/TR/2001/REC-SVG-20010904/DTD/svg10.dtd">
<svg version="1.0" xmlns="http://www.w3.org/2000/svg"
 width="1920.000000pt" height="1080.000000pt" viewBox="0 0 1920.000000 1080.000000"
 preserveAspectRatio="xMidYMid meet">

<g transform="translate(0.000000,1080.000000) scale(0.100000,-0.100000)"
fill="#000000" stroke="none">
<path d="M4012 9605 c0 -16 2 -22 5 -12 2 9 2 23 0 30 -3 6 -5 -1 -5 -18z"/>
<path d="M2838 9211 c-43 -20 -78 -56 -78 -81 0 -9 -8 -24 -18 -34 -11 -9 -25
-35 -31 -59 -7 -23 -17 -52 -22 -65 -5 -13 -9 -82 -9 -155 0 -120 3 -140 29
-214 32 -90 59 -123 120 -143 35 -11 44 -11 78 5 51 24 113 84 113 110 1 11 7
31 15 45 8 14 14 43 15 66 0 22 5 45 12 52 15 15 14 220 -1 235 -6 6 -11 25
-11 43 0 44 -34 120 -60 134 -11 6 -19 18 -18 27 3 18 -47 52 -77 51 -11 0
-37 -7 -57 -17z"/>
<path d="M3885 9020 c3 -5 12 -7 20 -3 21 7 19 13 -6 13 -11 0 -18 -4 -14 -10z"/>
<path d="M3767 8933 c-4 -3 -7 -11 -7 -17 0 -6 5 -5 12 2 6 6 9 14 7 17 -3 3
-9 2 -12 -2z"/>
<path d="M3730 8776 c0 -44 4 -76 10 -76 6 0 10 30 10 69 0 39 -4 73 -10 76
-6 4 -10 -22 -10 -69z"/>
<path d="M3760 8510 c0 -51 2 -91 5 -89 7 8 8 169 1 176 -3 4 -6 -36 -6 -87z"/>
<path d="M3995 8550 c-4 -6 3 -10 14 -10 25 0 27 6 6 13 -8 4 -17 2 -20 -3z"/>
<path d="M3276 8532 c-3 -6 0 -12 6 -15 10 -4 10 -7 0 -18 -10 -11 -17 -11
-31 -2 -22 13 -68 -4 -106 -39 -11 -11 -38 -27 -60 -37 -131 -61 -175 -83
-180 -91 -4 -6 -14 -10 -24 -10 -10 0 -28 -11 -41 -25 -12 -13 -26 -22 -30
-20 -25 16 -229 -169 -255 -231 -18 -44 -21 -284 -4 -316 6 -11 13 -57 16
-102 3 -44 10 -89 15 -100 6 -10 14 -50 19 -90 5 -39 16 -116 24 -171 9 -55
20 -138 24 -185 4 -47 13 -98 19 -113 7 -16 12 -59 12 -96 0 -37 4 -71 10 -77
5 -5 12 -36 16 -69 8 -67 27 -105 54 -105 27 0 38 19 51 92 13 70 12 77 -26
333 -7 50 -18 128 -25 175 -6 47 -18 126 -27 175 -19 105 -21 201 -5 217 6 6
21 8 34 5 21 -6 26 -17 41 -99 14 -77 40 -240 63 -393 2 -16 11 -73 19 -125 8
-52 21 -144 30 -205 9 -60 23 -153 31 -205 8 -52 19 -124 24 -160 5 -36 14
-94 20 -130 5 -36 19 -139 30 -230 11 -91 22 -174 25 -185 6 -21 28 -165 46
-305 6 -47 15 -93 20 -102 14 -26 11 -38 -11 -38 -12 0 -34 20 -58 53 -38 50
-182 192 -315 310 -57 50 -67 63 -76 108 -24 110 -6 129 50 52 51 -72 99 -115
123 -111 39 6 48 42 42 178 -10 240 -109 530 -220 644 -54 55 -64 88 -87 271
-5 44 -14 90 -19 103 -6 13 -10 47 -10 76 0 30 -7 73 -15 96 -8 23 -15 65 -15
91 0 27 -4 57 -9 67 -5 9 -14 48 -19 86 -13 87 -27 102 -42 47 -6 -24 -20 -57
-31 -74 -10 -18 -19 -41 -19 -52 0 -20 -20 -82 -44 -140 -21 -51 -37 -97 -58
-170 -17 -60 -19 -90 -14 -205 3 -74 10 -162 15 -195 6 -33 18 -103 27 -155 8
-52 19 -115 24 -140 5 -25 12 -72 15 -105 3 -33 10 -80 16 -105 5 -25 14 -74
19 -110 5 -36 14 -90 20 -120 6 -30 16 -93 21 -140 5 -47 16 -115 24 -151 8
-37 15 -82 15 -100 0 -19 5 -50 11 -69 6 -19 14 -89 19 -155 5 -66 13 -145 19
-175 19 -98 30 -163 46 -285 18 -136 38 -225 68 -305 26 -71 35 -80 53 -56 18
26 26 16 35 -47 5 -28 15 -92 24 -142 20 -111 44 -262 54 -332 5 -35 14 -58
26 -67 14 -10 23 -35 31 -88 6 -40 20 -131 32 -203 12 -71 33 -218 47 -325 66
-496 80 -569 127 -667 28 -58 67 -103 90 -103 18 0 21 36 9 119 -14 93 -22
147 -45 316 -33 234 -47 343 -55 410 -5 39 -20 147 -35 240 -34 224 -33 245 7
229 30 -11 49 -94 82 -364 9 -74 20 -162 25 -195 11 -72 33 -226 55 -390 56
-416 79 -502 155 -584 31 -33 33 -34 46 -16 17 22 17 38 4 102 -5 26 -16 107
-25 178 -30 254 -116 911 -135 1030 -5 33 -19 130 -30 215 -11 85 -23 169 -26
185 -3 17 -9 66 -15 110 -10 87 -30 231 -54 395 -8 58 -20 148 -25 200 -6 52
-15 122 -20 154 -10 62 -7 76 14 76 33 0 51 -65 76 -265 5 -44 16 -134 25
-200 9 -66 20 -156 25 -200 26 -229 78 -415 117 -415 18 0 17 111 -2 249 -31
218 -56 411 -85 651 -11 91 -25 197 -32 235 -13 84 -6 125 22 125 25 0 56 34
82 87 17 36 19 56 15 130 -3 49 -12 133 -21 188 -9 55 -23 159 -32 230 -8 72
-19 159 -24 195 -5 36 -13 103 -18 150 -5 47 -12 93 -16 103 -3 9 -9 25 -12
35 -3 9 -7 42 -9 74 -1 31 -8 85 -15 120 -12 58 -11 69 5 106 11 24 26 42 34
42 25 -1 51 -25 51 -47 0 -11 3 -23 8 -27 6 -6 18 -91 37 -256 2 -19 9 -57 15
-85 6 -27 15 -87 19 -131 5 -45 13 -103 19 -130 13 -57 40 -239 46 -304 9
-106 29 -227 42 -252 10 -18 23 -28 37 -28 26 0 87 58 87 82 0 9 5 20 10 23
14 9 13 165 -1 165 -8 0 -10 -22 -7 -71 4 -48 2 -74 -7 -83 -7 -6 -15 -21 -19
-33 -6 -19 -54 -59 -60 -51 -2 2 -6 16 -10 31 -6 25 -4 28 13 22 26 -8 36 11
19 38 -7 12 -13 42 -12 67 0 25 -3 52 -7 61 -5 9 -13 63 -18 120 -8 88 -8 105
5 112 9 5 12 16 8 31 -3 14 1 27 10 35 14 12 17 9 22 -18 4 -17 11 -34 15 -37
5 -3 9 -27 9 -53 0 -63 10 -111 23 -111 13 0 2 152 -13 179 -5 11 -10 59 -11
108 -1 100 -16 174 -18 87 -1 -28 -4 -65 -7 -82 -5 -26 -9 -29 -24 -20 -14 9
-15 18 -9 52 4 23 14 57 23 76 16 38 13 143 -4 190 -5 14 -12 58 -14 99 -3 44
-10 77 -18 82 -9 6 -11 32 -9 88 2 67 0 82 -13 87 -13 5 -16 23 -16 99 0 73
-3 94 -15 99 -12 4 -15 24 -15 94 0 53 -5 93 -12 100 -6 6 -12 51 -13 109 -2
116 -2 116 -15 108 -5 -3 -10 -18 -10 -33 0 -15 -5 -34 -10 -42 -7 -11 -10 2
-10 43 0 31 4 57 10 57 6 0 10 33 10 80 0 62 -3 82 -15 86 -12 5 -15 29 -15
125 0 106 -2 119 -19 128 -17 10 -19 19 -14 91 4 51 2 84 -5 93 -18 21 -19
136 -2 147 28 18 78 12 85 -10 3 -11 13 -20 21 -20 12 0 14 7 9 29 -7 33 17
81 41 81 26 0 33 179 7 188 -10 3 -13 -15 -13 -68 0 -63 -2 -71 -17 -68 -21 4
-21 21 1 98 21 72 21 163 1 180 -10 9 -15 27 -14 55 3 45 -5 65 -26 65 -7 0
-15 5 -17 10 -5 15 -74 25 -82 12z m94 -57 c0 -23 -2 -24 -20 -15 -23 12 -26
26 -7 33 23 10 27 7 27 -18z m-85 -14 c7 -12 -12 -24 -25 -16 -11 7 -4 25 10
25 5 0 11 -4 15 -9z m112 -103 c-3 -8 -6 -5 -6 6 -1 11 2 17 5 13 3 -3 4 -12
1 -19z m-105 -866 c3 -9 1 -26 -3 -37 -6 -15 -8 -11 -8 18 -1 40 4 48 11 19z
m28 -137 c0 -14 -4 -25 -10 -25 -5 0 -10 11 -10 25 0 14 5 25 10 25 6 0 10
-11 10 -25z m-776 -452 c20 -61 25 -164 9 -170 -21 -8 -42 41 -49 114 -10 110
12 141 40 56z m845 -164 c-19 -12 -21 -5 -7 27 11 29 12 29 16 5 2 -13 -2 -27
-9 -32z m11 -94 c0 -8 -4 -15 -10 -15 -5 0 -10 7 -10 15 0 8 5 15 10 15 6 0
10 -7 10 -15z m20 -60 c0 -8 -4 -15 -10 -15 -5 0 -7 7 -4 15 4 8 8 15 10 15 2
0 4 -7 4 -15z m-1036 -121 c9 -8 16 -32 16 -52 0 -36 17 -140 45 -274 8 -37
12 -74 9 -83 -7 -18 -28 -20 -42 -2 -18 21 -69 397 -57 416 8 14 11 14 29 -5z
m965 -66 c1 -10 -4 -18 -9 -18 -16 0 -23 27 -15 58 l8 27 7 -25 c5 -14 8 -33
9 -42z m81 42 c0 -11 7 -20 15 -20 12 0 15 -16 15 -88 0 -55 -4 -92 -12 -100
-17 -17 -31 -15 -25 3 4 8 2 17 -3 20 -6 4 -9 25 -8 48 1 23 -2 68 -7 100 -7
49 -6 57 9 57 9 0 16 -8 16 -20z m-53 -183 c3 -23 2 -37 -5 -37 -14 0 -35 66
-27 81 11 17 25 -3 32 -44z m76 -264 c-8 -2 -13 -22 -13 -44 0 -21 -4 -39 -10
-39 -5 0 -10 -20 -10 -45 0 -25 -4 -45 -10 -45 -6 0 -10 37 -10 90 l0 90 33
-1 c17 0 26 -3 20 -6z m-12 -316 c1 -67 5 -100 15 -108 18 -15 28 -73 16 -95
-9 -16 -10 -16 -19 2 -6 10 -9 33 -8 49 0 17 -5 39 -12 50 -18 27 -15 221 3
203 2 -2 4 -47 5 -101z m-271 -201 c0 -8 -4 -18 -10 -21 -5 -3 -10 3 -10 14 0
12 5 21 10 21 6 0 10 -6 10 -14z m117 -183 c-3 -10 -5 -4 -5 12 0 17 2 24 5
18 2 -7 2 -21 0 -30z m3 -41 c0 -10 -22 -32 -32 -32 -13 0 -9 28 5 33 19 8 27
8 27 -1z"/>
<path d="M3931 8373 c2 -85 17 -106 18 -25 1 42 -3 72 -9 72 -5 0 -10 -21 -9
-47z"/>
<path d="M3786 8323 c-7 -24 -3 -80 7 -89 4 -4 7 18 7 49 0 58 -5 71 -14 40z"/>
<path d="M2216 8194 c-22 -56 -12 -447 13 -574 21 -101 34 -155 41 -170 5 -8
13 -28 19 -44 l12 -29 16 22 c13 19 14 50 9 214 -9 283 -27 418 -73 550 -18
49 -27 57 -37 31z"/>
<path d="M3961 8114 c0 -11 3 -14 6 -6 3 7 2 16 -1 19 -3 4 -6 -2 -5 -13z"/>
<path d="M3811 8028 c0 -18 4 -42 9 -53 6 -15 9 -6 9 33 1 28 -3 52 -9 52 -5
0 -10 -15 -9 -32z"/>
<path d="M3425 8002 c-6 -4 -11 -20 -12 -37 -15 -198 -15 -207 -2 -203 10 3
15 36 19 124 3 65 5 120 5 121 0 1 -5 -1 -10 -5z"/>
<path d="M3464 7904 c4 -54 12 -105 18 -111 6 -8 8 -34 5 -59 -3 -29 0 -59 9
-78 12 -29 13 -26 14 57 0 69 -3 89 -15 93 -12 5 -15 23 -13 97 2 70 0 91 -11
95 -12 4 -13 -12 -7 -94z"/>
<path d="M3991 7894 c0 -11 3 -14 6 -6 3 7 2 16 -1 19 -3 4 -6 -2 -5 -13z"/>
<path d="M3843 7835 c0 -27 2 -38 4 -22 2 15 2 37 0 50 -2 12 -4 0 -4 -28z"/>
<path d="M3425 7741 c-8 -13 6 -201 15 -201 9 0 18 137 12 179 -4 31 -15 40
-27 22z"/>
<path d="M3477 7593 c-11 -10 -8 -53 3 -53 6 0 10 14 10 30 0 31 -2 35 -13 23z"/>
<path d="M3520 7526 c0 -37 4 -66 10 -66 6 0 10 26 10 59 0 33 -4 63 -10 66
-6 4 -10 -18 -10 -59z"/>
<path d="M3457 7480 c-12 -43 -8 -118 7 -133 8 -8 16 -36 18 -63 4 -66 22 -62
26 6 2 40 -1 57 -12 66 -10 7 -19 37 -24 80 -6 52 -9 63 -15 44z"/>
<path d="M3500 7418 c0 -19 2 -20 10 -8 13 19 13 30 0 30 -5 0 -10 -10 -10
-22z"/>
<path d="M3547 7363 c-4 -3 -7 -40 -7 -80 0 -55 3 -74 13 -71 7 3 13 29 15 73
3 64 -5 94 -21 78z"/>
<path d="M3525 7170 c3 -5 8 -10 11 -10 2 0 4 5 4 10 0 6 -5 10 -11 10 -5 0
-7 -4 -4 -10z"/>
<path d="M12105 5966 c-72 -18 -103 -37 -162 -97 -65 -68 -80 -87 -129 -174
-131 -230 -130 -516 3 -579 172 -82 415 150 498 474 16 62 20 197 6 232 -32
83 -46 108 -71 126 -37 28 -85 34 -145 18z"/>
<path d="M4235 5857 c-88 -50 -138 -199 -115 -339 47 -278 245 -496 466 -515
96 -8 149 9 200 62 52 53 80 153 69 240 -8 67 -44 183 -81 262 -64 137 -187
256 -308 296 -74 25 -181 22 -231 -6z"/>
<path d="M7059 5500 c-25 -4 -54 -12 -65 -18 -10 -5 -37 -18 -58 -28 -22 -11
-65 -44 -96 -74 -85 -83 -121 -200 -101 -325 11 -73 26 -112 69 -187 29 -50
52 -75 118 -128 113 -91 308 -132 442 -94 145 41 250 130 289 245 30 89 34
140 17 222 -21 99 -59 172 -129 243 -120 122 -299 175 -486 144z"/>
<path d="M9910 5493 c-84 -10 -162 -44 -267 -119 -70 -50 -96 -81 -144 -174
-53 -101 -61 -136 -58 -241 5 -123 36 -190 116 -254 183 -143 514 -75 679 140
66 86 94 173 94 291 0 106 -17 170 -61 226 -33 41 -116 98 -169 115 -42 14
-141 22 -190 16z"/>
<path d="M12430 5201 c-41 -15 -111 -40 -155 -55 -44 -16 -93 -34 -110 -42
-51 -22 -151 -63 -191 -77 -196 -72 -449 -174 -498 -201 -85 -48 -158 -122
-195 -197 -36 -76 -50 -164 -101 -669 -10 -99 -17 -163 -51 -484 -27 -247 -20
-296 42 -296 58 0 105 104 133 295 16 107 20 133 51 358 8 59 15 128 15 153 0
68 29 195 52 227 27 38 62 34 67 -8 6 -51 -25 -337 -63 -585 -7 -47 -14 -112
-15 -144 -1 -33 -4 -63 -6 -66 -2 -3 -9 -51 -14 -106 -9 -86 -46 -409 -81
-714 -6 -52 -15 -126 -20 -165 -5 -38 -12 -97 -15 -130 -3 -33 -10 -96 -15
-140 -67 -548 -66 -539 -41 -564 55 -55 185 8 238 115 22 43 49 178 58 289 5
70 15 149 54 465 64 504 74 560 108 601 14 16 31 29 39 29 43 0 40 -72 -20
-550 -20 -157 -43 -343 -51 -415 -9 -71 -20 -146 -26 -166 -14 -55 -13 -187 1
-204 39 -47 168 22 224 120 29 51 50 159 91 475 9 69 23 170 31 225 19 132 53
381 64 475 8 72 21 168 55 420 24 173 43 324 70 545 51 410 64 489 91 531 19
27 61 33 71 8 8 -21 -29 -308 -87 -685 -22 -142 -7 -229 38 -229 24 0 89 46
103 73 11 20 22 72 49 232 5 28 16 82 24 120 21 99 25 119 42 220 8 50 21 126
29 170 35 190 65 464 64 575 0 94 -21 164 -54 185 -17 11 -32 8 -95 -14z"/>
<path d="M3809 5083 c-38 -23 -52 -51 -60 -116 -8 -63 -5 -93 40 -532 17 -159
35 -337 41 -395 19 -182 39 -334 51 -375 30 -111 117 -194 166 -160 40 28 38
226 -7 625 -11 96 -22 193 -24 215 -6 50 18 105 46 105 10 0 29 -11 42 -25 25
-27 38 -111 71 -460 8 -93 20 -210 25 -260 5 -49 12 -119 15 -155 3 -36 10
-110 16 -165 5 -55 23 -246 39 -425 16 -179 34 -365 39 -415 6 -49 13 -121 16
-160 5 -66 10 -116 35 -330 5 -49 14 -134 20 -188 5 -53 17 -113 25 -133 31
-76 100 -135 186 -160 71 -21 107 -11 126 34 16 38 15 80 -5 267 -6 55 -18
181 -27 280 -9 99 -20 221 -25 270 -6 50 -14 148 -20 219 -20 258 -12 311 46
291 44 -16 71 -65 78 -142 4 -37 11 -106 16 -153 5 -47 17 -179 25 -295 9
-115 23 -272 31 -348 7 -75 14 -170 14 -210 1 -95 22 -213 49 -265 46 -90 215
-162 275 -117 28 22 36 88 26 220 -5 66 -14 183 -20 260 -17 242 -40 524 -55
690 -15 168 -37 443 -55 705 -6 85 -15 214 -21 285 -9 122 -30 445 -31 490 0
31 20 75 35 75 25 0 56 -31 71 -72 10 -28 19 -109 26 -228 17 -308 38 -541 54
-609 17 -74 54 -134 99 -161 41 -26 69 -25 93 1 17 19 19 37 18 188 -1 91 -9
270 -18 396 -16 225 -30 447 -41 654 -10 177 -42 259 -134 342 -29 27 -76 60
-105 74 -60 28 -215 83 -266 95 -19 4 -46 12 -60 18 -24 10 -138 46 -420 133
-74 22 -204 63 -288 90 -163 52 -228 60 -273 32z"/>
<path d="M10420 4595 c-191 -18 -564 -58 -690 -74 -41 -6 -138 -17 -215 -26
-446 -50 -487 -60 -575 -142 -103 -95 -110 -128 -129 -658 -6 -154 -16 -378
-22 -497 -9 -173 -9 -232 1 -285 17 -87 49 -123 110 -123 55 0 74 12 104 63
51 86 61 165 86 657 12 236 14 251 46 290 30 34 63 39 88 11 15 -16 17 -40 17
-154 -1 -75 -5 -178 -10 -229 -6 -51 -12 -163 -16 -248 -3 -85 -8 -177 -10
-205 -3 -27 -9 -138 -15 -245 -5 -107 -14 -262 -20 -345 -5 -82 -17 -278 -25
-435 -9 -157 -20 -355 -25 -440 -22 -340 -13 -405 62 -435 49 -19 90 -19 170
1 84 22 141 68 161 132 9 27 22 152 31 292 9 135 21 306 27 380 6 74 14 207
20 295 16 273 22 312 55 346 19 20 37 29 60 29 53 0 57 -13 55 -195 -1 -91 -4
-171 -6 -178 -3 -7 -12 -120 -21 -252 -8 -132 -20 -294 -25 -360 -21 -283 -22
-311 -10 -348 24 -73 82 -91 203 -66 99 21 153 60 183 133 18 41 19 52 65 641
15 193 39 487 55 685 14 165 21 256 45 560 6 69 17 202 25 295 9 94 20 226 24
295 5 69 12 134 17 145 22 59 84 84 117 47 20 -22 22 -97 7 -200 -13 -88 -40
-396 -47 -542 -5 -99 -3 -122 12 -154 26 -54 55 -70 111 -61 83 12 117 60 149
210 13 65 20 130 45 458 5 70 14 167 20 215 19 162 40 427 40 500 0 80 -17
127 -65 175 -25 24 -112 59 -139 56 -6 -1 -72 -7 -146 -14z"/>
<path d="M6380 4591 c-64 -10 -138 -50 -174 -95 -30 -36 -31 -43 -36 -149 -6
-141 4 -594 19 -882 19 -339 41 -436 110 -482 68 -46 137 -26 172 50 27 57 29
108 19 614 l-5 263 32 32 c28 28 35 30 57 20 14 -6 32 -25 41 -42 17 -33 21
-135 45 -1260 6 -261 15 -601 20 -755 5 -154 10 -352 10 -440 0 -88 5 -177 11
-198 17 -61 71 -113 137 -132 75 -22 183 -17 236 11 69 35 67 20 64 732 l-3
634 24 19 c33 27 77 24 106 -7 31 -34 33 -67 41 -754 5 -427 9 -573 19 -596
28 -68 116 -108 242 -108 91 -1 118 12 161 74 l22 33 1 696 c1 383 4 974 8
1313 6 606 6 617 27 645 28 38 63 41 94 8 l25 -27 0 -391 c0 -402 4 -455 36
-519 29 -57 63 -78 125 -78 48 0 57 4 87 35 26 26 37 50 45 93 14 71 34 1182
23 1267 -10 77 -31 116 -95 180 -73 72 -144 88 -476 110 -47 3 -161 12 -255
20 -93 8 -226 20 -295 25 -69 6 -199 17 -290 25 -221 19 -375 25 -430 16z"/>
<path d="M14461 4354 c0 -11 3 -14 6 -6 3 7 2 16 -1 19 -3 4 -6 -2 -5 -13z"/>
</g>
</svg>
